<svg width="1410" height="464" viewBox="0 0 1410 464" fill="none" xmlns="http://www.w3.org/2000/svg">
<g clip-path="url(#clip0_12_35)">
<path d="M1256.72 153.004C1269.62 163.882 1276.86 179.678 1278.29 196.377C1278.4 199.756 1278.41 203.119 1278.37 206.5C1278.39 207.62 1278.4 208.74 1278.41 209.895C1278.37 220.895 1276.51 231.385 1271.37 241.188C1271.03 241.86 1270.68 242.533 1270.32 243.227C1263.34 256.165 1252.83 264.197 1239 268.938C1224.01 272.716 1208.02 271.493 1194.59 263.582C1192.34 262.121 1190.16 260.592 1188 259C1186.97 258.258 1185.94 257.515 1184.87 256.75C1172.05 244.482 1166.97 227.476 1166.04 210.227C1165.6 190.513 1170.02 171.421 1183.81 156.688C1203.59 138.022 1235.02 137.03 1256.72 153.004ZM1191.53 172.898C1182.71 185.011 1181.59 203.391 1183.5 217.785C1185.8 230.921 1190.52 240.904 1200.87 249.566C1209.23 255.387 1219.03 256.685 1228.96 255.57C1239.03 253.68 1247.79 247.703 1253.62 239.313C1262.85 223.841 1263.63 206.263 1260 189C1256.88 177.635 1251.27 168.042 1241.06 161.816C1223.21 152.279 1204.17 157.557 1191.53 172.898Z" fill="#1C46B0"/>
<path d="M512 144C517.28 144 522.56 144 528 144C528.33 163.47 528.66 182.94 529 203C533.614 198.386 537.881 194.029 542.086 189.133C544.305 186.661 546.637 184.334 549 182C551.952 179.084 554.804 176.154 557.5 173C560.981 168.928 564.773 165.212 568.582 161.449C571.235 158.762 573.713 155.976 576.137 153.082C576.752 152.395 577.366 151.708 578 151C578.674 150.119 578.674 150.119 579.362 149.22C581.877 146.241 583.734 144.271 587.627 143.437C590.593 143.312 593.474 143.387 596.438 143.563C597.455 143.594 598.473 143.626 599.521 143.658C602.018 143.74 604.507 143.861 607 144C602.621 150.263 597.649 155.604 592.207 160.953C591.379 161.776 590.551 162.598 589.698 163.446C587.075 166.052 584.444 168.652 581.812 171.25C579.171 173.864 576.531 176.479 573.894 179.097C572.259 180.72 570.621 182.341 568.98 183.958C568.238 184.693 567.497 185.428 566.734 186.185C566.083 186.827 565.433 187.469 564.763 188.13C562.996 190.005 561.426 191.853 560 194C560.394 198.324 563.246 201.554 565.688 205C566.172 205.694 566.656 206.387 567.154 207.102C568.764 209.405 570.382 211.703 572 214C573.153 215.645 574.305 217.291 575.457 218.938C577.237 221.482 579.018 224.026 580.801 226.568C584.881 232.387 588.921 238.233 592.933 244.1C596.984 250.01 601.125 255.855 605.293 261.682C609 266.892 609 266.892 609 268C601.695 269.332 594.2 270.22 587 268C580.027 263.043 576.02 254.809 571.812 247.563C570.616 245.63 569.412 243.703 568.201 241.779C565.85 238.021 563.542 234.242 561.272 230.434C558.171 225.246 554.937 220.154 551.637 215.09C551.165 214.366 550.694 213.642 550.208 212.896C549.141 211.263 548.071 209.631 547 208C546.563 208.381 546.125 208.762 545.675 209.155C542.825 211.62 540.005 213.997 536.952 216.212C531.994 220.221 528.942 223.432 528.026 229.916C527.565 235.676 527.678 241.416 527.812 247.188C527.819 249.209 527.821 251.231 527.818 253.252C527.822 258.17 527.892 263.083 528 268C522.72 268 517.44 268 512 268C512 227.08 512 186.16 512 144Z" fill="#1C46B0"/>
<path d="M973 183C979.437 189.331 980.216 197.09 980.328 205.718C980.335 207.38 980.335 207.38 980.344 209.074C980.358 210.234 980.373 211.395 980.388 212.59C980.434 216.289 980.468 219.988 980.5 223.687C980.541 228.546 980.595 233.404 980.656 238.262C980.664 239.908 980.664 239.908 980.672 241.587C980.789 250.777 981.568 259.419 985 268C979.39 268 973.78 268 968 268C967.34 265.03 966.68 262.06 966 259C965.406 259.459 964.811 259.918 964.199 260.391C952.047 269.387 940.877 271.528 926 270C919.19 268.67 914.681 265.647 910.406 260.203C905.95 253.222 904.902 245.784 906.433 237.715C908.32 230.882 912.102 225.671 917.963 221.654C926.001 217.324 934.409 216.156 943.312 214.75C944.863 214.494 946.413 214.236 947.963 213.977C950.797 213.503 953.633 213.04 956.47 212.585C959.329 212.111 962.164 211.592 965 211C964.2 201.501 964.2 201.501 959 194C952.181 189.701 943.419 189.823 935.68 191.504C931.605 193.047 929.266 195.357 927 199C925.861 201.64 924.924 204.272 924 207C916.575 206.01 916.575 206.01 909 205C909.617 196.361 911.872 190.703 918.25 184.687C932.536 172.798 957.817 172.613 973 183ZM954.926 226.299C951.014 227.29 947.104 228.2 943.144 228.98C942.348 229.141 941.552 229.302 940.732 229.468C939.197 229.774 937.658 230.065 936.117 230.341C930.801 231.417 927.828 233.114 924 237C921.729 241.008 921.811 244.303 923 248.687C925.831 253.376 928.154 256.275 933.484 257.633C941.054 258.638 947.804 257.746 954.262 253.52C959.862 248.996 962.942 244.055 964.75 237.125C965.1 232.746 965.078 228.39 965 224C961.742 224 958.093 225.485 954.926 226.299Z" fill="#1C46B0"/>
<path d="M674 183C679.729 188.578 681.316 195.616 681.467 203.331C681.47 204.221 681.473 205.111 681.477 206.027C681.492 206.974 681.508 207.922 681.524 208.898C681.571 211.911 681.599 214.924 681.625 217.937C681.674 221.884 681.73 225.831 681.789 229.777C681.81 231.214 681.81 231.214 681.832 232.68C681.932 250.642 681.932 250.642 686 268C680.72 268 675.44 268 670 268C669.01 265.36 668.02 262.72 667 260C666.071 260.554 665.141 261.109 664.184 261.68C662.935 262.412 661.687 263.144 660.438 263.875C659.524 264.422 659.524 264.422 658.592 264.98C651.396 269.168 644.796 270.345 636.563 270.312C635.351 270.337 635.351 270.337 634.115 270.361C626.059 270.368 619.527 268.287 613.539 262.723C608.447 257.023 606.918 250.525 607 243C607.65 234.781 611.612 227.563 617.875 222.187C629.004 215.154 645.859 214.5 658.575 212.417C661.06 211.99 663.53 211.505 666 211C665.717 209.082 665.423 207.166 665.125 205.25C664.963 204.183 664.8 203.115 664.633 202.016C663.882 198.438 663.301 195.985 660.328 193.734C652.851 190.192 644.768 189.733 636.688 191.508C632.606 193.038 630.267 195.357 628 199C626.862 201.64 625.925 204.272 625 207C617.575 206.01 617.575 206.01 610 205C611.337 195.645 614.117 188.498 621.625 182.469C636.433 173.311 659.678 172.714 674 183ZM655.929 226.297C652.003 227.289 648.078 228.209 644.11 229.016C643.309 229.181 642.508 229.346 641.684 229.517C640.135 229.832 638.583 230.137 637.03 230.429C632.42 231.378 629.412 232.556 626 236C623.355 240.089 623.102 244.277 624 249C626.22 253.187 628.927 255.495 633.188 257.5C642.311 258.696 650.391 257.384 658 252C663.617 246.557 665.843 240.553 666.11 232.828C666.123 229.882 666.089 226.945 666 224C662.743 224 659.096 225.485 655.929 226.297Z" fill="#1C46B0"/>
<path d="M1140 182C1145.29 186.448 1148.84 191.484 1149.81 198.375C1149.87 199.571 1149.94 200.768 1150 202C1148.06 203.941 1144.53 203.399 1141.94 203.563C1140.65 203.646 1139.36 203.73 1138.03 203.816C1137.03 203.877 1136.03 203.938 1135 204C1134.8 203.397 1134.61 202.793 1134.41 202.172C1132.85 198.018 1131.5 194.728 1127.56 192.438C1120.95 189.736 1112.47 189.695 1105.81 192.313C1102.79 193.854 1102.79 193.854 1101 197C1100.44 201.788 1100.44 201.788 1102.41 206.008C1106.19 208.919 1110.29 210.039 1114.81 211.438C1115.75 211.739 1116.68 212.041 1117.65 212.351C1121.2 213.497 1124.77 214.618 1128.34 215.724C1146.56 221.377 1146.56 221.377 1152 231C1154.4 238.21 1154.18 247.577 1151 254.5C1146.69 261.749 1140.63 266.734 1132.59 269.34C1127.7 270.24 1122.91 270.434 1117.94 270.5C1117.02 270.519 1116.09 270.537 1115.14 270.556C1105.63 270.469 1097.7 267.572 1090.76 260.981C1085.32 254.857 1083.39 249.093 1083 241C1088.23 239.533 1092.58 238.774 1098 239C1098.16 239.592 1098.32 240.183 1098.48 240.793C1100.48 247.55 1102.86 251.141 1109.06 254.813C1115.16 257.148 1122.9 257.115 1129 254.813C1133.33 252.196 1135.42 249.842 1136.94 245C1137.02 241.148 1136.58 239.884 1134 237C1126.68 232.931 1118.44 230.926 1110.44 228.645C1100.4 225.7 1093.18 222.735 1087 214C1083.79 207.852 1083.86 199.773 1085.84 193.211C1089.26 185.59 1094.45 181.269 1102.12 178.188C1114.27 174.179 1129.13 174.849 1140 182Z" fill="#1C46B0"/>
<path d="M257.195 141.254C264.291 146.205 270.291 153.356 272 162C273.061 172.947 271.775 181.68 264.75 190.312C259.07 196.333 252.289 200.416 243.957 201.336C232.718 201.476 224.187 199.187 215.945 191.285C209.754 184.012 207.65 175.989 207.789 166.613C208.477 158.086 212.59 149.812 219.074 144.207C230.686 136 244.494 133.999 257.195 141.254Z" fill="#1C46B0"/>
<path d="M328.512 211.695C334.99 216.985 339.4 223.71 341 232C341.894 242.762 340.049 251.595 333.02 259.957C326.094 266.963 318.831 269.934 309.125 270.312C300.048 270.076 292.599 267.273 286 261C278.927 253.398 276.332 245.38 276.66 235.051C277.715 225.583 281.743 218.167 289 212C301.473 204.172 315.978 203.235 328.512 211.695Z" fill="#1C46B0"/>
<path d="M259.512 211.695C265.993 216.987 269.382 223.147 272 231C272.904 242.399 271.656 250.851 264.375 259.813C258.444 266.076 251.242 269.454 242.676 270.203C231.837 270.418 223.892 267.517 216 260C210.277 253.934 207.923 246.246 207.625 238C208.002 228.353 211.191 220.875 218 214C230.188 203.944 246.243 202.74 259.512 211.695Z" fill="#1C46B0"/>
<path d="M326.453 141.512C334.622 147.53 339.092 153.974 341 164C342.067 172.989 340.391 180.968 335.305 188.516C330.008 194.992 323.853 198.382 316 201C304.601 201.904 296.149 200.656 287.187 193.375C281.247 187.761 277.502 180.538 276.762 172.371C276.523 162.96 278.185 155.08 284.187 147.625C295.126 136.194 312.79 133.092 326.453 141.512Z" fill="#1C46B0"/>
<path d="M190.219 211.578C197.41 217.535 202.425 223.982 203.336 233.516C203.454 244.845 201.832 252.88 193.922 261.246C186.633 267.897 178.745 270.528 168.902 270.312C160.693 269.428 152.794 265.933 147 260C141.144 252.227 137.859 243.872 139 234C140.855 224.38 144.999 216.902 152.937 211.062C164.462 203.676 178.933 203.551 190.219 211.578Z" fill="#1C46B0"/>
<path d="M329.961 75.2069C336.52 80.9744 340.281 89.0335 341.316 97.6249C341.744 107.338 339.035 115.034 332.75 122.437C325.982 129.461 319.027 132.109 309.375 132.312C299.694 132.212 292.807 129.58 285.754 122.926C278.799 115.289 276.549 107.476 276.758 97.246C277.402 88.6171 280.876 82.1009 287 75.9999C300.422 65.7693 316.188 65.3518 329.961 75.2069Z" fill="#1C46B0"/>
<path d="M258.75 73.6875C265.81 78.7519 270.407 85.4135 272 94C272.961 103.442 271.995 111.383 266.422 119.219C260.465 126.41 254.018 131.425 244.484 132.336C233.159 132.454 225.111 130.836 216.754 122.918C210.015 115.549 207.455 107.559 207.684 97.6485C208.697 89.1702 212.385 80.8732 218.969 75.3477C231.555 66.2844 245.507 65.519 258.75 73.6875Z" fill="#1C46B0"/>
<path d="M326 279C333.791 284.428 339.24 291.557 341 301C341.88 311.318 339.786 319.462 333.789 327.926C327.905 334.748 319.73 338.08 310.942 339.281C301.768 339.724 292.801 336.02 286 330C278.899 321.787 276.418 314.227 276.629 303.414C277.585 294.617 281.366 287.543 287.879 281.621C298.784 273.287 314.037 271.947 326 279Z" fill="#1C46B0"/>
<path d="M393 209C401.213 213.936 406.733 220.85 409.375 230.125C411.111 240.888 409.193 250.017 402.793 258.961C397.026 265.52 388.966 269.281 380.375 270.316C370.662 270.744 362.965 268.035 355.562 261.75C348.539 254.982 345.891 248.027 345.688 238.375C345.788 228.694 348.42 221.807 355.074 214.754C365.373 205.374 380.322 202.463 393 209Z" fill="#1C46B0"/>
<path d="M188.231 141.324C195.68 146.649 200.799 153.031 203 162C204.061 172.05 203.384 179.907 197.457 188.144C192.165 194.672 186.09 198.722 178 201C167.874 201.978 159.661 200.827 151.313 194.937C144.399 189.208 140.419 181.799 139 173C138.287 164.152 140.44 156.032 146 149C156.806 136.694 173.757 132.731 188.231 141.324Z" fill="#1C46B0"/>
<path d="M397 74.0001C403.806 79.4147 407.33 85.2962 409.75 93.5626C410.703 102.856 409.478 111.654 404.269 119.66C399.248 125.664 392.856 130.581 385 132C376.246 132.622 368.647 132.735 361 128C360.377 127.649 359.755 127.299 359.113 126.938C352.246 122.648 348.082 115.711 346 108C344.93 96.7996 346.067 87.7508 353 78.7501C364.503 66.4748 383.257 64.5329 397 74.0001Z" fill="#1C46B0"/>
<path d="M398.312 143.625C404.956 149.028 408.656 156.671 410 165C410.823 175.204 407.612 184.191 401 192C394.209 198.561 386.902 201.098 377.562 201.438C368.332 201.179 361.461 198.254 354.754 191.926C347.605 184.077 345.496 176.037 345.695 165.535C346.502 156.179 350.958 149.103 358 143C371.089 134.653 385.374 134.95 398.312 143.625Z" fill="#1C46B0"/>
<path d="M171.25 67.75C180.728 68.3819 189.199 71.9368 195.789 78.8867C202.985 87.9087 204.099 96.5458 203 108C202.132 111.373 200.857 114.065 199 117C198.564 117.708 198.129 118.415 197.68 119.145C192.986 126.057 187.003 129.775 179 132C167.8 133.07 158.751 131.933 149.75 125C144.041 119.65 140.024 111.767 139 104C138.807 93.4603 141.022 85.0643 148.188 77.1875C154.851 71.033 162.365 68.4335 171.25 67.75Z" fill="#1C46B0"/>
<path d="M119 71.9999C127.821 78.0022 132.228 84.5303 134.375 94.8124C135.681 104.25 133.925 111.82 128.691 119.777C123.824 126.173 117.861 130.139 110 132C98.7399 133.189 89.6211 131.953 80.6875 124.812C74.1327 118.656 70.9956 111.459 70.6052 102.568C70.3993 92.5986 72.4909 85.505 78.9453 77.6249C90.033 66.4963 105.24 65.9188 119 71.9999Z" fill="#1C46B0"/>
<path d="M465.297 142.578C467.342 144.285 469.182 146.053 471 148C471.493 148.523 471.987 149.047 472.496 149.586C477.743 155.969 479.39 164.522 479 172.625C477.905 180.87 473.836 188.163 468 194C459.413 200.517 450.646 202.025 440 201C430.321 198.517 423.668 193.659 418.262 185.379C413.954 177.256 413.549 167.142 415.652 158.238C419.109 149.736 425.751 142.926 434 139C444.47 134.96 456.032 136.213 465.297 142.578Z" fill="#1C46B0"/>
<path d="M770 144C800.69 144 831.38 144 863 144C863 149.28 863 154.56 863 160C850.46 160 837.92 160 825 160C825 195.97 825 231.94 825 269C819.72 269 814.44 269 809 269C809 233.03 809 197.06 809 160C796.13 160 783.26 160 770 160C770 154.72 770 149.44 770 144Z" fill="#1C46B0"/>
<path d="M121.297 142.578C128.785 148.828 133.232 155.476 134.75 165.188C135.604 174.794 133.202 183.556 127 191C118.361 198.767 110.832 201.515 99.2851 201.316C91.8232 200.598 84.4152 197.243 79 192C71.2419 182.325 70.0528 173.026 71 161C72.968 152.668 78.9351 145.83 85.9375 141.125C97.098 134.763 110.659 135.269 121.297 142.578Z" fill="#1C46B0"/>
<path d="M122.75 212.187C129.805 217.591 133.416 225.675 134.75 234.25C135.589 243.329 132.993 252.056 127.277 259.133C121.362 265.507 114.309 269.376 105.59 270.238C96.4801 270.493 88.728 268.604 81.625 262.687C74.869 256.208 70.8331 249.886 70.6201 240.24C70.6217 239.562 70.6233 238.885 70.625 238.187C70.6274 237.129 70.6274 237.129 70.6299 236.049C70.7674 230.185 71.9478 225.945 75 221C75.5569 219.948 76.1137 218.896 76.6875 217.812C88.6006 203.324 107.569 202.641 122.75 212.187Z" fill="#1C46B0"/>
<path d="M324.047 2.67569C331.734 7.88781 336.879 13.6479 340.312 22.3124C342.035 31.5503 341.349 39.5707 337 47.9999C331.979 55.2949 325.588 60.6633 317 62.9999C308.105 63.7926 299.779 63.89 292 58.9999C291.379 58.6609 290.757 58.3219 290.117 57.9726C283.006 53.6473 279.175 45.8154 277 37.9999C275.84 27.3698 277.911 18.138 284.453 9.59757C294.182 -0.450766 311.435 -4.18356 324.047 2.67569Z" fill="#1C46B0"/>
<path d="M1058 182C1063.13 186.368 1065.64 191.468 1067 198C1067.4 203.401 1067.35 208.781 1067.29 214.191C1067.29 215.748 1067.28 217.304 1067.28 218.861C1067.27 222.93 1067.24 226.999 1067.21 231.067C1067.18 235.23 1067.16 239.393 1067.15 243.557C1067.11 251.705 1067.06 259.852 1067 268C1062.05 268 1057.1 268 1052 268C1051.99 266.133 1051.97 264.267 1051.96 262.344C1051.9 256.153 1051.84 249.962 1051.76 243.772C1051.72 240.021 1051.68 236.271 1051.65 232.52C1051.63 228.895 1051.59 225.271 1051.54 221.646C1051.52 220.269 1051.51 218.891 1051.5 217.513C1051.67 205.067 1051.67 205.067 1045.69 194.625C1040.47 191.469 1036.31 190.54 1030.31 191.391C1024.59 192.898 1020.25 196.112 1017 201C1014 209.233 1013.54 217.524 1013.49 226.203C1013.47 227.407 1013.45 228.611 1013.43 229.851C1013.38 233.651 1013.35 237.45 1013.31 241.25C1013.28 243.845 1013.24 246.44 1013.21 249.035C1013.12 255.357 1013.06 261.678 1013 268C1008.05 268 1003.1 268 998 268C998 238.3 998 208.6 998 178C1002.62 178 1007.24 178 1012 178C1012.33 180.97 1012.66 183.94 1013 187C1013.48 186.529 1013.97 186.059 1014.47 185.574C1026.42 174.469 1044.21 172.359 1058 182Z" fill="#1C46B0"/>
<path d="M902.188 179.063C903.116 179.702 904.044 180.341 905 181C903.971 186.446 902.754 191.118 900 196C898.989 195.67 897.979 195.34 896.938 195C892.178 193.664 887.975 193.173 883.312 195.125C878.095 199.355 876.065 204.525 875 211C874.681 215.416 874.628 219.824 874.586 224.25C874.567 225.504 874.547 226.758 874.527 228.05C874.478 231.357 874.436 234.665 874.399 237.972C874.359 241.358 874.308 244.744 874.258 248.129C874.162 254.753 874.078 261.376 874 268C868.72 268 863.44 268 858 268C858 238.3 858 208.6 858 178C862.62 178 867.24 178 872 178C872.33 181.3 872.66 184.6 873 188C873.825 186.763 874.65 185.525 875.5 184.25C882.306 175.318 892.235 173.442 902.188 179.063Z" fill="#1C46B0"/>
<path d="M1325 144C1329.95 144 1334.9 144 1340 144C1340 185.25 1340 226.5 1340 269C1335.05 269 1330.1 269 1325 269C1325 227.75 1325 186.5 1325 144Z" fill="#1C46B0"/>
<path d="M1294 178C1298.95 178 1303.9 178 1309 178C1309 208.03 1309 238.06 1309 269C1304.05 269 1299.1 269 1294 269C1294 238.97 1294 208.94 1294 178Z" fill="#1C46B0"/>
<path d="M1294 144C1298.95 144 1303.9 144 1309 144C1309 150.27 1309 156.54 1309 163C1304.05 163 1299.1 163 1294 163C1294 156.73 1294 150.46 1294 144Z" fill="#1C46B0"/>
<path d="M698 178C721.1 178 744.2 178 768 178C768 191.462 768 191.462 763.188 196.375C762.164 197.469 761.143 198.565 760.125 199.664C759.602 200.214 759.078 200.763 758.539 201.329C756.079 204 753.894 206.869 751.688 209.75C747.551 215.079 743.304 220.306 739 225.5C734.124 231.386 729.328 237.323 724.639 243.359C721.827 246.975 718.936 250.476 716 254C733.82 254.33 751.64 254.66 770 255C770 259.29 770 263.58 770 268C745.25 268 720.5 268 695 268C695 253.075 695 253.075 699.75 248.062C700.244 247.49 700.737 246.917 701.246 246.326C702.284 245.128 703.336 243.941 704.4 242.766C706.483 240.466 708.493 238.108 710.507 235.748C711.506 234.578 712.509 233.413 713.517 232.25C717.45 227.704 721.165 223.016 724.844 218.263C728.69 213.324 732.743 208.586 736.845 203.859C740.433 199.708 743.792 195.455 747 191C746.434 191.071 745.869 191.143 745.286 191.217C735.639 192.272 726.001 192.11 716.312 192.062C714.532 192.057 712.751 192.053 710.971 192.049C706.647 192.038 702.324 192.021 698 192C698 187.38 698 182.76 698 178Z" fill="#1C46B0"/>
</g>
<path d="M118.803 408.031L118.155 429.547H107.475V417H103.742V408.031H118.803ZM67.6563 417V363.909H78.4404V407.979H100.527V363.909H111.441V417H67.6563ZM143.553 417.778C139.457 417.778 135.932 416.948 132.977 415.289C130.039 413.613 127.775 411.245 126.185 408.186C124.595 405.11 123.8 401.472 123.8 397.272C123.8 393.176 124.595 389.582 126.185 386.488C127.775 383.395 130.013 380.984 132.899 379.256C135.802 377.527 139.207 376.663 143.113 376.663C145.739 376.663 148.185 377.087 150.449 377.934C152.73 378.763 154.718 380.016 156.411 381.692C158.122 383.369 159.453 385.477 160.403 388.018C161.354 390.541 161.829 393.496 161.829 396.884V399.917H128.207V393.073H151.434C151.434 391.483 151.088 390.074 150.397 388.847C149.706 387.62 148.747 386.661 147.52 385.97C146.31 385.261 144.901 384.907 143.294 384.907C141.618 384.907 140.131 385.296 138.835 386.074C137.556 386.834 136.554 387.862 135.828 389.158C135.102 390.437 134.731 391.863 134.713 393.436V399.942C134.713 401.913 135.076 403.615 135.802 405.049C136.545 406.484 137.591 407.59 138.939 408.368C140.287 409.145 141.886 409.534 143.735 409.534C144.962 409.534 146.085 409.361 147.105 409.016C148.124 408.67 148.997 408.152 149.723 407.46C150.449 406.769 151.002 405.922 151.382 404.92L161.596 405.594C161.077 408.048 160.015 410.191 158.407 412.023C156.817 413.837 154.761 415.254 152.238 416.274C149.732 417.277 146.837 417.778 143.553 417.778ZM196.748 392.684V401.368H175.957V392.684H196.748ZM179.587 377.182V417H169.036V377.182H179.587ZM203.669 377.182V417H193.196V377.182H203.669ZM208.238 385.866V377.182H244.324V385.866H231.492V417H220.967V385.866H208.238ZM251.018 431.932V377.182H261.906V383.87H262.399C262.883 382.799 263.582 381.71 264.498 380.604C265.432 379.48 266.641 378.547 268.128 377.804C269.631 377.044 271.498 376.663 273.727 376.663C276.631 376.663 279.309 377.424 281.763 378.945C284.217 380.448 286.179 382.721 287.648 385.762C289.117 388.787 289.851 392.58 289.851 397.143C289.851 401.584 289.134 405.335 287.7 408.393C286.283 411.435 284.347 413.742 281.893 415.315C279.456 416.87 276.726 417.648 273.701 417.648C271.558 417.648 269.735 417.294 268.231 416.585C266.745 415.877 265.527 414.987 264.576 413.915C263.626 412.826 262.9 411.729 262.399 410.623H262.062V431.932H251.018ZM261.828 397.091C261.828 399.459 262.157 401.524 262.813 403.287C263.47 405.049 264.421 406.423 265.665 407.408C266.909 408.376 268.421 408.86 270.202 408.86C271.999 408.86 273.52 408.368 274.764 407.382C276.008 406.38 276.95 404.998 277.59 403.235C278.246 401.455 278.575 399.407 278.575 397.091C278.575 394.792 278.255 392.77 277.616 391.025C276.976 389.279 276.034 387.914 274.79 386.929C273.546 385.944 272.016 385.451 270.202 385.451C268.404 385.451 266.883 385.927 265.639 386.877C264.412 387.828 263.47 389.176 262.813 390.921C262.157 392.667 261.828 394.723 261.828 397.091ZM324.66 402.431L338.995 377.182H349.883V417H339.358V391.673L325.075 417H314.109V377.182H324.66V402.431ZM376.727 417.778C372.648 417.778 369.14 416.914 366.202 415.185C363.281 413.44 361.035 411.02 359.462 407.927C357.907 404.833 357.129 401.273 357.129 397.246C357.129 393.168 357.915 389.59 359.488 386.514C361.078 383.421 363.333 381.01 366.254 379.282C369.175 377.536 372.648 376.663 376.675 376.663C380.149 376.663 383.19 377.294 385.8 378.556C388.41 379.817 390.475 381.589 391.996 383.87C393.516 386.151 394.355 388.83 394.51 391.906H384.089C383.795 389.919 383.018 388.32 381.756 387.11C380.512 385.883 378.878 385.27 376.856 385.27C375.146 385.27 373.651 385.737 372.372 386.67C371.11 387.586 370.125 388.925 369.416 390.688C368.708 392.451 368.354 394.585 368.354 397.091C368.354 399.631 368.699 401.792 369.391 403.572C370.099 405.352 371.093 406.708 372.372 407.642C373.651 408.575 375.146 409.042 376.856 409.042C378.118 409.042 379.25 408.782 380.252 408.264C381.272 407.745 382.11 406.994 382.767 406.009C383.441 405.006 383.882 403.805 384.089 402.405H394.51C394.337 405.447 393.508 408.126 392.022 410.441C390.553 412.74 388.522 414.537 385.93 415.833C383.337 417.13 380.27 417.778 376.727 417.778ZM419.572 417.778C415.493 417.778 411.985 416.914 409.047 415.185C406.126 413.44 403.879 411.02 402.307 407.927C400.751 404.833 399.974 401.273 399.974 397.246C399.974 393.168 400.76 389.59 402.333 386.514C403.923 383.421 406.178 381.01 409.099 379.282C412.019 377.536 415.493 376.663 419.52 376.663C422.993 376.663 426.035 377.294 428.645 378.556C431.254 379.817 433.32 381.589 434.84 383.87C436.361 386.151 437.199 388.83 437.355 391.906H426.934C426.64 389.919 425.862 388.32 424.601 387.11C423.356 385.883 421.723 385.27 419.701 385.27C417.99 385.27 416.495 385.737 415.216 386.67C413.955 387.586 412.97 388.925 412.261 390.688C411.553 392.451 411.198 394.585 411.198 397.091C411.198 399.631 411.544 401.792 412.235 403.572C412.944 405.352 413.938 406.708 415.216 407.642C416.495 408.575 417.99 409.042 419.701 409.042C420.963 409.042 422.095 408.782 423.097 408.264C424.117 407.745 424.955 406.994 425.612 406.009C426.286 405.006 426.726 403.805 426.934 402.405H437.355C437.182 405.447 436.353 408.126 434.866 410.441C433.397 412.74 431.367 414.537 428.774 415.833C426.182 417.13 423.114 417.778 419.572 417.778ZM442.092 417L442.041 408.238H443.363C444.296 408.238 445.1 408.013 445.774 407.564C446.465 407.097 447.035 406.346 447.484 405.309C447.934 404.272 448.288 402.898 448.547 401.187C448.807 399.459 448.979 397.333 449.066 394.81L449.714 377.182H479.992V417H469.467V385.866H459.642L459.02 398.024C458.865 401.36 458.459 404.228 457.802 406.631C457.162 409.033 456.272 411.003 455.132 412.541C453.991 414.062 452.617 415.185 451.01 415.911C449.403 416.637 447.536 417 445.411 417H442.092ZM506.7 417.778C502.604 417.778 499.078 416.948 496.123 415.289C493.185 413.613 490.921 411.245 489.331 408.186C487.741 405.11 486.946 401.472 486.946 397.272C486.946 393.176 487.741 389.582 489.331 386.488C490.921 383.395 493.159 380.984 496.045 379.256C498.949 377.527 502.353 376.663 506.259 376.663C508.886 376.663 511.331 377.087 513.595 377.934C515.877 378.763 517.864 380.016 519.558 381.692C521.269 383.369 522.599 385.477 523.55 388.018C524.5 390.541 524.976 393.496 524.976 396.884V399.917H491.353V393.073H514.58C514.58 391.483 514.235 390.074 513.544 388.847C512.852 387.62 511.893 386.661 510.666 385.97C509.456 385.261 508.048 384.907 506.441 384.907C504.764 384.907 503.278 385.296 501.982 386.074C500.703 386.834 499.7 387.862 498.975 389.158C498.249 390.437 497.877 391.863 497.86 393.436V399.942C497.86 401.913 498.223 403.615 498.949 405.049C499.692 406.484 500.737 407.59 502.085 408.368C503.433 409.145 505.032 409.534 506.881 409.534C508.108 409.534 509.232 409.361 510.251 409.016C511.271 408.67 512.144 408.152 512.869 407.46C513.595 406.769 514.148 405.922 514.529 404.92L524.742 405.594C524.224 408.048 523.161 410.191 521.554 412.023C519.964 413.837 517.907 415.254 515.384 416.274C512.878 417.277 509.983 417.778 506.7 417.778ZM529.072 428.665V408.238H532.131C533.012 407.685 533.72 406.804 534.256 405.594C534.809 404.384 535.259 402.958 535.604 401.316C535.967 399.675 536.244 397.903 536.434 396.002C536.641 394.084 536.823 392.148 536.978 390.195L538.015 377.182H568.553V408.238H574.722V428.665H564.198V417H539.856V428.665H529.072ZM543.122 408.238H558.132V385.685H547.399L546.985 390.195C546.691 394.447 546.267 398.059 545.714 401.031C545.161 403.987 544.297 406.389 543.122 408.238ZM599.149 417.778C595.122 417.778 591.64 416.922 588.702 415.211C585.781 413.483 583.526 411.081 581.936 408.005C580.346 404.911 579.551 401.325 579.551 397.246C579.551 393.133 580.346 389.539 581.936 386.462C583.526 383.369 585.781 380.967 588.702 379.256C591.64 377.527 595.122 376.663 599.149 376.663C603.175 376.663 606.649 377.527 609.57 379.256C612.508 380.967 614.772 383.369 616.362 386.462C617.952 389.539 618.747 393.133 618.747 397.246C618.747 401.325 617.952 404.911 616.362 408.005C614.772 411.081 612.508 413.483 609.57 415.211C606.649 416.922 603.175 417.778 599.149 417.778ZM599.201 409.223C601.032 409.223 602.562 408.705 603.789 407.668C605.016 406.613 605.941 405.179 606.563 403.364C607.202 401.55 607.522 399.484 607.522 397.169C607.522 394.853 607.202 392.788 606.563 390.973C605.941 389.158 605.016 387.724 603.789 386.67C602.562 385.616 601.032 385.088 599.201 385.088C597.351 385.088 595.796 385.616 594.534 386.67C593.29 387.724 592.348 389.158 591.709 390.973C591.087 392.788 590.775 394.853 590.775 397.169C590.775 399.484 591.087 401.55 591.709 403.364C592.348 405.179 593.29 406.613 594.534 407.668C595.796 408.705 597.351 409.223 599.201 409.223ZM625.927 417V377.182H642.907C647.815 377.182 651.695 378.115 654.547 379.982C657.398 381.848 658.824 384.501 658.824 387.94C658.824 390.1 658.021 391.898 656.413 393.332C654.806 394.766 652.577 395.734 649.725 396.235C652.11 396.408 654.141 396.953 655.817 397.869C657.511 398.767 658.798 399.934 659.68 401.368C660.578 402.803 661.028 404.393 661.028 406.138C661.028 408.402 660.423 410.346 659.213 411.971C658.021 413.595 656.266 414.84 653.951 415.704C651.652 416.568 648.844 417 645.525 417H625.927ZM636.219 408.73H645.525C647.064 408.73 648.265 408.368 649.129 407.642C650.01 406.899 650.451 405.888 650.451 404.609C650.451 403.192 650.01 402.077 649.129 401.265C648.265 400.452 647.064 400.046 645.525 400.046H636.219V408.73ZM636.219 393.565H643.141C644.247 393.565 645.188 393.41 645.966 393.099C646.761 392.77 647.366 392.304 647.781 391.699C648.213 391.094 648.429 390.377 648.429 389.547C648.429 388.32 647.936 387.361 646.951 386.67C645.966 385.978 644.618 385.633 642.907 385.633H636.219V393.565ZM679.342 417.752C676.802 417.752 674.538 417.311 672.551 416.43C670.563 415.531 668.99 414.209 667.832 412.463C666.692 410.701 666.122 408.506 666.122 405.879C666.122 403.667 666.528 401.809 667.34 400.305C668.152 398.802 669.258 397.592 670.658 396.676C672.058 395.76 673.648 395.069 675.428 394.602C677.225 394.136 679.109 393.807 681.079 393.617C683.395 393.375 685.262 393.151 686.679 392.943C688.096 392.719 689.124 392.39 689.764 391.958C690.403 391.526 690.723 390.887 690.723 390.04V389.884C690.723 388.242 690.204 386.972 689.167 386.074C688.148 385.175 686.696 384.725 684.812 384.725C682.825 384.725 681.243 385.166 680.068 386.048C678.893 386.912 678.115 388 677.735 389.314L667.521 388.484C668.04 386.065 669.06 383.974 670.58 382.211C672.101 380.431 674.063 379.066 676.465 378.115C678.884 377.147 681.684 376.663 684.864 376.663C687.076 376.663 689.193 376.923 691.215 377.441C693.255 377.96 695.061 378.763 696.633 379.852C698.223 380.941 699.476 382.341 700.392 384.051C701.308 385.745 701.766 387.776 701.766 390.143V417H691.293V411.478H690.982C690.343 412.723 689.487 413.82 688.416 414.771C687.344 415.704 686.057 416.438 684.553 416.974C683.049 417.493 681.313 417.752 679.342 417.752ZM682.505 410.13C684.13 410.13 685.564 409.811 686.808 409.171C688.053 408.514 689.029 407.633 689.738 406.527C690.446 405.421 690.801 404.168 690.801 402.768V398.543C690.455 398.767 689.98 398.975 689.375 399.165C688.787 399.338 688.122 399.502 687.379 399.657C686.636 399.796 685.892 399.925 685.149 400.046C684.406 400.15 683.732 400.245 683.127 400.331C681.831 400.521 680.699 400.824 679.731 401.239C678.763 401.653 678.012 402.215 677.476 402.924C676.94 403.615 676.672 404.479 676.672 405.516C676.672 407.02 677.217 408.169 678.305 408.964C679.412 409.741 680.811 410.13 682.505 410.13ZM738.046 392.684V401.368H717.255V392.684H738.046ZM720.884 377.182V417H710.334V377.182H720.884ZM744.967 377.182V417H734.494V377.182H744.967ZM764.086 402.431L778.421 377.182H789.309V417H778.784V391.673L764.5 417H753.535V377.182H764.086V402.431ZM808.713 402.431L823.048 377.182H833.936V417H823.411V391.673L809.127 417H798.162V377.182H808.713V402.431ZM821.156 363.287H828.855C828.838 366.432 827.671 368.964 825.355 370.882C823.057 372.801 819.946 373.76 816.023 373.76C812.083 373.76 808.963 372.801 806.665 370.882C804.366 368.964 803.217 366.432 803.217 363.287H810.864C810.847 364.479 811.227 365.551 812.005 366.501C812.8 367.452 814.139 367.927 816.023 367.927C817.855 367.927 819.168 367.461 819.963 366.527C820.758 365.594 821.156 364.514 821.156 363.287ZM870.235 402.431L884.571 377.182H895.458V417H884.934V391.673L870.65 417H859.684V377.182H870.235V402.431ZM921.207 431.932V377.182H932.095V383.87H932.587C933.071 382.799 933.771 381.71 934.687 380.604C935.62 379.48 936.83 378.547 938.316 377.804C939.82 377.044 941.686 376.663 943.916 376.663C946.819 376.663 949.498 377.424 951.952 378.945C954.406 380.448 956.367 382.721 957.836 385.762C959.305 388.787 960.04 392.58 960.04 397.143C960.04 401.584 959.323 405.335 957.888 408.393C956.471 411.435 954.535 413.742 952.081 415.315C949.645 416.87 946.914 417.648 943.89 417.648C941.747 417.648 939.923 417.294 938.42 416.585C936.934 415.877 935.715 414.987 934.765 413.915C933.814 412.826 933.088 411.729 932.587 410.623H932.25V431.932H921.207ZM932.017 397.091C932.017 399.459 932.345 401.524 933.002 403.287C933.659 405.049 934.609 406.423 935.853 407.408C937.098 408.376 938.61 408.86 940.39 408.86C942.187 408.86 943.708 408.368 944.953 407.382C946.197 406.38 947.139 404.998 947.778 403.235C948.435 401.455 948.763 399.407 948.763 397.091C948.763 394.792 948.444 392.77 947.804 391.025C947.165 389.279 946.223 387.914 944.978 386.929C943.734 385.944 942.205 385.451 940.39 385.451C938.593 385.451 937.072 385.927 935.828 386.877C934.6 387.828 933.659 389.176 933.002 390.921C932.345 392.667 932.017 394.723 932.017 397.091ZM978.756 417.752C976.216 417.752 973.952 417.311 971.965 416.43C969.977 415.531 968.404 414.209 967.247 412.463C966.106 410.701 965.536 408.506 965.536 405.879C965.536 403.667 965.942 401.809 966.754 400.305C967.566 398.802 968.672 397.592 970.072 396.676C971.472 395.76 973.062 395.069 974.842 394.602C976.639 394.136 978.523 393.807 980.493 393.617C982.809 393.375 984.676 393.151 986.093 392.943C987.51 392.719 988.538 392.39 989.178 391.958C989.817 391.526 990.137 390.887 990.137 390.04V389.884C990.137 388.242 989.618 386.972 988.581 386.074C987.562 385.175 986.11 384.725 984.226 384.725C982.239 384.725 980.658 385.166 979.482 386.048C978.307 386.912 977.529 388 977.149 389.314L966.935 388.484C967.454 386.065 968.474 383.974 969.994 382.211C971.515 380.431 973.477 379.066 975.879 378.115C978.299 377.147 981.098 376.663 984.278 376.663C986.49 376.663 988.607 376.923 990.629 377.441C992.669 377.96 994.475 378.763 996.047 379.852C997.637 380.941 998.89 382.341 999.806 384.051C1000.72 385.745 1001.18 387.776 1001.18 390.143V417H990.707V411.478H990.396C989.757 412.723 988.901 413.82 987.83 414.771C986.758 415.704 985.471 416.438 983.967 416.974C982.464 417.493 980.727 417.752 978.756 417.752ZM981.919 410.13C983.544 410.13 984.978 409.811 986.222 409.171C987.467 408.514 988.443 407.633 989.152 406.527C989.86 405.421 990.215 404.168 990.215 402.768V398.543C989.869 398.767 989.394 398.975 988.789 399.165C988.201 399.338 987.536 399.502 986.793 399.657C986.05 399.796 985.306 399.925 984.563 400.046C983.82 400.15 983.146 400.245 982.541 400.331C981.245 400.521 980.113 400.824 979.145 401.239C978.178 401.653 977.426 402.215 976.89 402.924C976.354 403.615 976.086 404.479 976.086 405.516C976.086 407.02 976.631 408.169 977.72 408.964C978.826 409.741 980.225 410.13 981.919 410.13ZM1007.7 405.723H1018.41C1018.46 407.037 1019.05 408.074 1020.17 408.834C1021.29 409.595 1022.74 409.975 1024.52 409.975C1026.32 409.975 1027.83 409.56 1029.06 408.73C1030.29 407.884 1030.9 406.674 1030.9 405.101C1030.9 404.133 1030.66 403.295 1030.18 402.587C1029.69 401.861 1029.02 401.29 1028.15 400.876C1027.29 400.461 1026.29 400.254 1025.15 400.254H1019.42V393.021H1025.15C1026.86 393.021 1028.17 392.623 1029.09 391.828C1030.02 391.033 1030.49 390.04 1030.49 388.847C1030.49 387.499 1030 386.419 1029.03 385.607C1028.08 384.777 1026.8 384.363 1025.17 384.363C1023.53 384.363 1022.17 384.734 1021.08 385.477C1020 386.203 1019.45 387.154 1019.42 388.329H1008.76C1008.8 385.944 1009.51 383.879 1010.91 382.133C1012.33 380.388 1014.23 379.04 1016.62 378.089C1019.02 377.139 1021.71 376.663 1024.68 376.663C1027.93 376.663 1030.73 377.121 1033.08 378.037C1035.45 378.936 1037.26 380.223 1038.52 381.9C1039.8 383.576 1040.44 385.572 1040.44 387.888C1040.44 389.997 1039.75 391.759 1038.37 393.176C1036.98 394.594 1035.05 395.605 1032.56 396.21V396.624C1034.2 396.728 1035.69 397.169 1037.02 397.946C1038.35 398.724 1039.41 399.796 1040.21 401.161C1041 402.509 1041.4 404.107 1041.4 405.957C1041.4 408.428 1040.67 410.545 1039.22 412.308C1037.79 414.071 1035.8 415.427 1033.26 416.378C1030.74 417.311 1027.84 417.778 1024.58 417.778C1021.4 417.778 1018.54 417.32 1016.02 416.404C1013.52 415.471 1011.52 414.105 1010.03 412.308C1008.56 410.511 1007.79 408.316 1007.7 405.723ZM1048.17 431.932V377.182H1059.06V383.87H1059.55C1060.04 382.799 1060.74 381.71 1061.65 380.604C1062.59 379.48 1063.8 378.547 1065.28 377.804C1066.79 377.044 1068.65 376.663 1070.88 376.663C1073.78 376.663 1076.46 377.424 1078.92 378.945C1081.37 380.448 1083.33 382.721 1084.8 385.762C1086.27 388.787 1087.01 392.58 1087.01 397.143C1087.01 401.584 1086.29 405.335 1084.85 408.393C1083.44 411.435 1081.5 413.742 1079.05 415.315C1076.61 416.87 1073.88 417.648 1070.86 417.648C1068.71 417.648 1066.89 417.294 1065.39 416.585C1063.9 415.877 1062.68 414.987 1061.73 413.915C1060.78 412.826 1060.05 411.729 1059.55 410.623H1059.22V431.932H1048.17ZM1058.98 397.091C1058.98 399.459 1059.31 401.524 1059.97 403.287C1060.62 405.049 1061.57 406.423 1062.82 407.408C1064.06 408.376 1065.58 408.86 1067.36 408.86C1069.15 408.86 1070.67 408.368 1071.92 407.382C1073.16 406.38 1074.1 404.998 1074.74 403.235C1075.4 401.455 1075.73 399.407 1075.73 397.091C1075.73 394.792 1075.41 392.77 1074.77 391.025C1074.13 389.279 1073.19 387.914 1071.94 386.929C1070.7 385.944 1069.17 385.451 1067.36 385.451C1065.56 385.451 1064.04 385.927 1062.79 386.877C1061.57 387.828 1060.62 389.176 1059.97 390.921C1059.31 392.667 1058.98 394.723 1058.98 397.091ZM1105.72 417.752C1103.18 417.752 1100.92 417.311 1098.93 416.43C1096.94 415.531 1095.37 414.209 1094.21 412.463C1093.07 410.701 1092.5 408.506 1092.5 405.879C1092.5 403.667 1092.91 401.809 1093.72 400.305C1094.53 398.802 1095.64 397.592 1097.04 396.676C1098.44 395.76 1100.03 395.069 1101.81 394.602C1103.61 394.136 1105.49 393.807 1107.46 393.617C1109.77 393.375 1111.64 393.151 1113.06 392.943C1114.48 392.719 1115.5 392.39 1116.14 391.958C1116.78 391.526 1117.1 390.887 1117.1 390.04V389.884C1117.1 388.242 1116.58 386.972 1115.55 386.074C1114.53 385.175 1113.08 384.725 1111.19 384.725C1109.2 384.725 1107.62 385.166 1106.45 386.048C1105.27 386.912 1104.5 388 1104.12 389.314L1093.9 388.484C1094.42 386.065 1095.44 383.974 1096.96 382.211C1098.48 380.431 1100.44 379.066 1102.84 378.115C1105.26 377.147 1108.06 376.663 1111.24 376.663C1113.46 376.663 1115.57 376.923 1117.6 377.441C1119.63 377.96 1121.44 378.763 1123.01 379.852C1124.6 380.941 1125.86 382.341 1126.77 384.051C1127.69 385.745 1128.15 387.776 1128.15 390.143V417H1117.67V411.478H1117.36C1116.72 412.723 1115.87 413.82 1114.8 414.771C1113.72 415.704 1112.44 416.438 1110.93 416.974C1109.43 417.493 1107.69 417.752 1105.72 417.752ZM1108.88 410.13C1110.51 410.13 1111.94 409.811 1113.19 409.171C1114.43 408.514 1115.41 407.633 1116.12 406.527C1116.83 405.421 1117.18 404.168 1117.18 402.768V398.543C1116.83 398.767 1116.36 398.975 1115.75 399.165C1115.17 399.338 1114.5 399.502 1113.76 399.657C1113.02 399.796 1112.27 399.925 1111.53 400.046C1110.79 400.15 1110.11 400.245 1109.51 400.331C1108.21 400.521 1107.08 400.824 1106.11 401.239C1105.14 401.653 1104.39 402.215 1103.86 402.924C1103.32 403.615 1103.05 404.479 1103.05 405.516C1103.05 407.02 1103.6 408.169 1104.69 408.964C1105.79 409.741 1107.19 410.13 1108.88 410.13ZM1169.82 362.561L1173.19 369.768C1172.06 370.701 1170.82 371.392 1169.45 371.842C1168.09 372.274 1166.46 372.559 1164.56 372.697C1162.67 372.835 1160.37 372.93 1157.66 372.982C1154.58 373.017 1152.08 373.509 1150.14 374.46C1148.21 375.41 1146.74 376.905 1145.73 378.945C1144.73 380.967 1144.08 383.611 1143.76 386.877H1144.15C1145.35 384.44 1147.02 382.557 1149.18 381.226C1151.36 379.895 1154.05 379.23 1157.24 379.23C1160.63 379.23 1163.6 379.973 1166.14 381.459C1168.69 382.945 1170.68 385.08 1172.1 387.862C1173.52 390.645 1174.22 393.98 1174.22 397.869C1174.22 401.913 1173.43 405.43 1171.84 408.419C1170.27 411.392 1168.03 413.699 1165.13 415.341C1162.22 416.965 1158.77 417.778 1154.76 417.778C1150.73 417.778 1147.26 416.931 1144.34 415.237C1141.43 413.544 1139.18 411.046 1137.59 407.745C1136.02 404.444 1135.24 400.383 1135.24 395.561V392.295C1135.24 382.703 1137.1 375.592 1140.84 370.96C1144.57 366.329 1150.06 363.978 1157.3 363.909C1159.27 363.875 1161.05 363.866 1162.64 363.883C1164.23 363.9 1165.62 363.823 1166.81 363.65C1168.02 363.477 1169.02 363.114 1169.82 362.561ZM1154.81 409.223C1156.5 409.223 1157.95 408.782 1159.16 407.901C1160.39 407.02 1161.33 405.758 1161.99 404.116C1162.66 402.474 1163 400.513 1163 398.232C1163 395.968 1162.66 394.049 1161.99 392.477C1161.33 390.887 1160.39 389.677 1159.16 388.847C1157.94 388.018 1156.47 387.603 1154.76 387.603C1153.48 387.603 1152.33 387.836 1151.31 388.303C1150.29 388.77 1149.42 389.461 1148.69 390.377C1147.98 391.275 1147.43 392.39 1147.03 393.721C1146.65 395.034 1146.46 396.538 1146.46 398.232C1146.46 401.636 1147.2 404.324 1148.66 406.294C1150.15 408.247 1152.2 409.223 1154.81 409.223ZM1199.55 417.778C1195.52 417.778 1192.04 416.922 1189.1 415.211C1186.18 413.483 1183.92 411.081 1182.33 408.005C1180.74 404.911 1179.95 401.325 1179.95 397.246C1179.95 393.133 1180.74 389.539 1182.33 386.462C1183.92 383.369 1186.18 380.967 1189.1 379.256C1192.04 377.527 1195.52 376.663 1199.55 376.663C1203.57 376.663 1207.05 377.527 1209.97 379.256C1212.9 380.967 1215.17 383.369 1216.76 386.462C1218.35 389.539 1219.14 393.133 1219.14 397.246C1219.14 401.325 1218.35 404.911 1216.76 408.005C1215.17 411.081 1212.9 413.483 1209.97 415.211C1207.05 416.922 1203.57 417.778 1199.55 417.778ZM1199.6 409.223C1201.43 409.223 1202.96 408.705 1204.19 407.668C1205.41 406.613 1206.34 405.179 1206.96 403.364C1207.6 401.55 1207.92 399.484 1207.92 397.169C1207.92 394.853 1207.6 392.788 1206.96 390.973C1206.34 389.158 1205.41 387.724 1204.19 386.67C1202.96 385.616 1201.43 385.088 1199.6 385.088C1197.75 385.088 1196.19 385.616 1194.93 386.67C1193.69 387.724 1192.74 389.158 1192.11 390.973C1191.48 392.788 1191.17 394.853 1191.17 397.169C1191.17 399.484 1191.48 401.55 1192.11 403.364C1192.74 405.179 1193.69 406.613 1194.93 407.668C1196.19 408.705 1197.75 409.223 1199.6 409.223ZM1222.47 385.866V377.182H1258.55V385.866H1245.72V417H1235.2V385.866H1222.47ZM1281.81 417.778C1277.79 417.778 1274.3 416.922 1271.37 415.211C1268.44 413.483 1266.19 411.081 1264.6 408.005C1263.01 404.911 1262.21 401.325 1262.21 397.246C1262.21 393.133 1263.01 389.539 1264.6 386.462C1266.19 383.369 1268.44 380.967 1271.37 379.256C1274.3 377.527 1277.79 376.663 1281.81 376.663C1285.84 376.663 1289.31 377.527 1292.23 379.256C1295.17 380.967 1297.44 383.369 1299.03 386.462C1300.62 389.539 1301.41 393.133 1301.41 397.246C1301.41 401.325 1300.62 404.911 1299.03 408.005C1297.44 411.081 1295.17 413.483 1292.23 415.211C1289.31 416.922 1285.84 417.778 1281.81 417.778ZM1281.86 409.223C1283.7 409.223 1285.23 408.705 1286.45 407.668C1287.68 406.613 1288.6 405.179 1289.23 403.364C1289.87 401.55 1290.19 399.484 1290.19 397.169C1290.19 394.853 1289.87 392.788 1289.23 390.973C1288.6 389.158 1287.68 387.724 1286.45 386.67C1285.23 385.616 1283.7 385.088 1281.86 385.088C1280.02 385.088 1278.46 385.616 1277.2 386.67C1275.95 387.724 1275.01 389.158 1274.37 390.973C1273.75 392.788 1273.44 394.853 1273.44 397.169C1273.44 399.484 1273.75 401.55 1274.37 403.364C1275.01 405.179 1275.95 406.613 1277.2 407.668C1278.46 408.705 1280.02 409.223 1281.86 409.223ZM1308.59 417V377.182H1319.63V392.632H1322.75L1333.58 377.182H1346.54L1332.47 396.935L1346.7 417H1333.58L1323.76 402.872H1319.63V417H1308.59Z" fill="#1C46B0"/>
<defs>
<clipPath id="clip0_12_35">
<rect width="1280" height="339" fill="white" transform="translate(71)"/>
</clipPath>
</defs>
</svg>
